<?xml version="1.0" encoding="UTF-8" standalone="no"?>
<!-- Created with Inkscape (http://www.inkscape.org/) -->

<svg
   xmlns:dc="http://purl.org/dc/elements/1.1/"
   xmlns:cc="http://creativecommons.org/ns#"
   xmlns:rdf="http://www.w3.org/1999/02/22-rdf-syntax-ns#"
   xmlns:svg="http://www.w3.org/2000/svg"
   xmlns="http://www.w3.org/2000/svg"
   xmlns:sodipodi="http://sodipodi.sourceforge.net/DTD/sodipodi-0.dtd"
   xmlns:inkscape="http://www.inkscape.org/namespaces/inkscape"
   width="136.44109mm"
   height="131.22934mm"
   viewBox="0 0 136.44109 131.22934"
   version="1.1"
   id="svg8"
   inkscape:version="0.92.3 (2405546, 2018-03-11)"
   sodipodi:docname="joshuadavislogo.svg">
  <defs
     id="defs2" />
  <sodipodi:namedview
     id="base"
     pagecolor="#ffffff"
     bordercolor="#666666"
     borderopacity="1.0"
     inkscape:pageopacity="0.0"
     inkscape:pageshadow="2"
     inkscape:zoom="1.979899"
     inkscape:cx="215.41079"
     inkscape:cy="121.52723"
     inkscape:document-units="mm"
     inkscape:current-layer="g4690"
     showgrid="false"
     showguides="false"
     inkscape:window-width="3607"
     inkscape:window-height="2109"
     inkscape:window-x="-14"
     inkscape:window-y="-14"
     inkscape:window-maximized="1" />
  <metadata
     id="metadata5">
    <rdf:RDF>
      <cc:Work
         rdf:about="">
        <dc:format>image/svg+xml</dc:format>
        <dc:type
           rdf:resource="http://purl.org/dc/dcmitype/StillImage" />
        <dc:title></dc:title>
      </cc:Work>
    </rdf:RDF>
  </metadata>
  <g
     inkscape:label="Layer 1"
     inkscape:groupmode="layer"
     id="layer1"
     transform="translate(-31.80508,-62.070064)">
    <flowRoot
       xml:space="preserve"
       id="flowRoot4520"
       style="font-style:normal;font-weight:normal;font-size:86.66666412px;line-height:2;font-family:sans-serif;letter-spacing:0px;word-spacing:0px;fill:#000000;fill-opacity:1;stroke:none"
       transform="scale(0.26458333)"><flowRegion
         id="flowRegion4522"
         style="font-size:86.66666412px;line-height:2"><rect
           id="rect4524"
           width="394.96967"
           height="347.49246"
           x="63.134533"
           y="140.65141"
           style="font-size:86.66666412px;line-height:2" /></flowRegion><flowPara
         id="flowPara4526"
         style="font-style:normal;font-variant:normal;font-weight:normal;font-stretch:normal;font-size:266.66665649px;line-height:2;font-family:'Bodoni MT Condensed';-inkscape-font-specification:'Bodoni MT Condensed, '">J</flowPara></flowRoot>    <flowRoot
       xml:space="preserve"
       id="flowRoot4528"
       style="font-style:normal;font-weight:normal;font-size:40px;line-height:1.25;font-family:sans-serif;letter-spacing:0px;word-spacing:0px;fill:#000000;fill-opacity:1;stroke:none"
       transform="scale(0.26458333)"><flowRegion
         id="flowRegion4530"><rect
           id="rect4532"
           width="291.93408"
           height="229.30463"
           x="455.5788"
           y="488.14389" /></flowRegion><flowPara
         id="flowPara4534"></flowPara></flowRoot>    <flowRoot
       xml:space="preserve"
       id="flowRoot4536"
       style="font-style:normal;font-weight:normal;font-size:40px;line-height:1.25;font-family:sans-serif;letter-spacing:0px;word-spacing:0px;fill:#000000;fill-opacity:1;stroke:none"
       transform="scale(0.26458333)"><flowRegion
         id="flowRegion4538"><rect
           id="rect4540"
           width="120.20815"
           height="82.327431"
           x="52.527931"
           y="346.72253" /></flowRegion><flowPara
         id="flowPara4542"></flowPara></flowRoot>    <flowRoot
       xml:space="preserve"
       id="flowRoot4544"
       style="font-style:normal;font-weight:normal;font-size:40px;line-height:1.25;font-family:sans-serif;letter-spacing:0px;word-spacing:0px;fill:#000000;fill-opacity:1;stroke:none"
       transform="scale(0.26458333)"><flowRegion
         id="flowRegion4546"><rect
           id="rect4548"
           width="660.1347"
           height="550.53314"
           x="-49.497475"
           y="128.02451" /></flowRegion><flowPara
         id="flowPara4550"></flowPara></flowRoot>    <flowRoot
       xml:space="preserve"
       id="flowRoot4552"
       style="font-style:normal;font-weight:normal;font-size:40px;line-height:1.25;font-family:sans-serif;letter-spacing:0px;word-spacing:0px;fill:#000000;fill-opacity:1;stroke:none"
       transform="scale(0.26458333)"><flowRegion
         id="flowRegion4554"><rect
           id="rect4556"
           width="341.43155"
           height="249.50768"
           x="122.73354"
           y="288.13367" /></flowRegion><flowPara
         id="flowPara4558"></flowPara></flowRoot>    <flowRoot
       xml:space="preserve"
       id="flowRoot4604"
       style="font-style:normal;font-weight:normal;font-size:40px;line-height:1.25;font-family:sans-serif;letter-spacing:0px;word-spacing:0px;fill:#000000;fill-opacity:1;stroke:none"
       transform="scale(0.26458333)"><flowRegion
         id="flowRegion4606"><rect
           id="rect4608"
           width="173.74623"
           height="392.44427"
           x="396.48486"
           y="369.45096" /></flowRegion><flowPara
         id="flowPara4610"></flowPara></flowRoot>    <flowRoot
       xml:space="preserve"
       id="flowRoot4620"
       style="font-style:normal;font-variant:normal;font-weight:normal;font-stretch:normal;font-size:40px;line-height:1.25;font-family:sans-serif;-inkscape-font-specification:sans-serif;letter-spacing:0px;word-spacing:0px;fill:#000000;fill-opacity:1;stroke:none"
       transform="scale(0.26458333)"><flowRegion
         id="flowRegion4622"
         style="font-style:normal;font-variant:normal;font-weight:normal;font-stretch:normal;font-family:sans-serif;-inkscape-font-specification:sans-serif"><rect
           id="rect4624"
           width="214.15234"
           height="189.40359"
           x="323.24881"
           y="653.8089"
           style="font-style:normal;font-variant:normal;font-weight:normal;font-stretch:normal;font-family:sans-serif;-inkscape-font-specification:sans-serif" /></flowRegion><flowPara
         id="flowPara4626"></flowPara></flowRoot>  </g>
  <g
     inkscape:groupmode="layer"
     id="layer2"
     inkscape:label="Layer 2"
     transform="translate(-31.80508,-62.070064)">
    <g
       id="g4690"
       transform="translate(4.1426732,5.7462944)">
      <path
         inkscape:connector-curvature="0"
         id="path4518"
         d="m 165.97437,121.4039 c 1.22935,43.9227 -47.74432,76.53822 -88.38109,62.68409 C 35.845515,173.90027 14.682256,118.8335 41.448985,84.355067 65.752608,48.16639 124.43668,46.288992 151.19282,80.617164 c 9.4326,11.357523 14.82622,26.006736 14.78155,40.786736 z"
         style="fill:#545454;fill-opacity:1;stroke-width:0.26458332" />
      <g
         id="flowRoot4560"
         style="font-style:normal;font-weight:normal;font-size:40px;line-height:1.25;font-family:sans-serif;letter-spacing:0px;word-spacing:0px;fill:#000000;fill-opacity:1;stroke:none"
         transform="matrix(0.58366647,0,0,0.49692862,-98.196476,-134.48589)"
         aria-label="J">
        <path
           inkscape:connector-curvature="0"
           id="path4679"
           d="m 258.89844,428.34472 c -2.03239,-6.45038 4.1476,-4.68838 8.43625,-4.81771 22.40493,0 44.80986,0 67.21479,0 2.38111,7.90563 -7.04571,3.50417 -11.41764,5.21647 -13.93868,1.16249 -14.22652,16.81547 -13.84278,27.43957 -0.22333,32.20984 0.48576,64.44339 -0.43233,96.63575 -0.57733,20.6307 -11.59884,43.01664 -32.38118,49.56257 -13.72947,4.30394 -33.70333,1.51781 -38.23141,-14.37682 -5.72649,-14.96054 18.15202,-24.93756 24.07227,-9.72494 2.05238,9.23309 13.54199,25.1081 20.21484,9.74121 3.13591,-13.07022 1.23038,-26.7322 1.75781,-40.08872 -0.14103,-33.97611 0.29312,-67.96333 -0.23804,-101.93195 1.64624,-11.48687 -9.92008,-18.61981 -20.17842,-17.65543 -1.65805,0 -3.31611,0 -4.97416,0 z"
           style="font-style:normal;font-variant:normal;font-weight:normal;font-stretch:normal;font-size:266.66665649px;font-family:serif;-inkscape-font-specification:serif;fill:#ffffff;fill-opacity:1" />
      </g>
      <g
         id="flowRoot4612"
         style="font-style:normal;font-variant:normal;font-weight:normal;font-stretch:normal;font-size:40px;line-height:1.25;font-family:serif;-inkscape-font-specification:serif;letter-spacing:0px;word-spacing:0px;fill:#ffffff;fill-opacity:1;stroke:none;stroke-opacity:1"
         transform="matrix(2.6337732,0,0,2.9893133,-1024.4597,-1153.4267)"
         aria-label="D">
        <path
           inkscape:connector-curvature="0"
           id="path4682"
           d="m 421.91797,437.78608 c -0.30689,-1.51087 2.03481,-0.16099 2.71423,-1.14227 1.59984,-1.24144 0.96381,-3.51449 1.09436,-5.29938 -0.0439,-5.65091 0.0924,-11.30799 -0.0769,-16.95465 0.0953,-2.03163 -2.07148,-2.56074 -3.68014,-2.36542 -0.49319,-1.05302 0.8983,-0.6621 1.56766,-0.72265 4.7952,0.089 9.61504,-0.24428 14.38665,0.33691 4.06402,0.36936 7.82413,2.9233 9.42314,6.71646 2.6429,5.83178 1.18414,13.83582 -4.54113,17.29195 -4.60088,2.80259 -10.12631,2.01603 -15.25891,2.13905 -1.87632,0 -3.75264,0 -5.62896,0 z m 7.55859,-1.91406 c 3.91705,1.05875 8.59436,0.72049 11.49142,-2.44085 3.47625,-3.56015 3.82399,-9.18225 2.42948,-13.7359 -1.36132,-4.33199 -5.85992,-7.24891 -10.36407,-6.90034 -1.37793,0.27131 -4.15988,-0.21662 -3.55683,1.9069 0,7.05673 0,14.11346 0,21.17019 z"
           style="fill:#ffffff;fill-opacity:1;stroke:none;stroke-opacity:1" />
      </g>
    </g>
  </g>
</svg>
